<svg width="24" height="24" viewBox="0 0 24 24" fill="none" xmlns="http://www.w3.org/2000/svg">
<path d="M12 24C5.4 24 0 18.6 0 12C0 5.4 5.4 0 12 0C18.6 0 24 5.4 24 12C24 18.6 18.6 24 12 24Z" fill="#4BDB4B"/>
<path opacity="0.4" d="M18.9794 14.347C19.5794 15.4462 19.181 16.8478 18.1778 17.4478C17.0786 18.0478 15.677 17.6494 15.077 16.6462L10.277 8.44781C9.677 7.34861 10.0754 5.94701 11.1794 5.34701C12.2786 4.64621 13.5794 5.04941 14.2802 6.14861L18.9794 14.347Z" fill="black"/>
<path opacity="0.65" d="M9.54728 16.6465C8.94727 17.7458 7.54567 18.1442 6.44647 17.4482C5.34727 16.8481 4.94406 15.4465 5.64487 14.3473L10.3441 6.14893C10.9441 5.04972 12.3457 4.65132 13.4449 5.34732C14.5441 5.94732 14.9425 7.34893 14.2465 8.44813L9.54728 16.6465Z" fill="black"/>
<path d="M14.5484 7.30067C14.5484 8.60147 12.2492 11.8031 12.2492 11.8031C12.2492 11.8031 10.0508 8.60147 10.0508 7.30067C10.0508 5.99987 11.0492 5.00146 12.35 5.00146C13.6508 5.00146 14.5484 6.10067 14.5484 7.30067Z" fill="black"/>
</svg>
