<svg width="24" height="24" viewBox="0 0 24 24" fill="none" xmlns="http://www.w3.org/2000/svg">
<path d="M12 24C18.6274 24 24 18.6274 24 12C24 5.37258 18.6274 0 12 0C5.37258 0 0 5.37258 0 12C0 18.6274 5.37258 24 12 24Z" fill="#E84142"/>
<path d="M16.2334 12.3119C16.651 11.5919 17.3182 11.5919 17.7358 12.3119L20.323 16.8575C20.7406 17.5775 20.3998 18.1631 19.5694 18.1631H14.3518C13.531 18.1631 13.1902 17.5775 13.5982 16.8575L16.2334 12.3119ZM11.227 3.56148C11.6446 2.84148 12.3022 2.84148 12.7198 3.56148L13.2958 4.60309L14.6542 6.99349C14.9854 7.67509 14.9854 8.47669 14.6542 9.15829L10.0894 17.0687C9.67177 17.7119 8.98537 18.1199 8.21737 18.1631H4.43017C3.59977 18.1631 3.25897 17.5871 3.67657 16.8575L11.227 3.56148Z" fill="white"/>
</svg>
