<svg width="24" height="24" viewBox="0 0 24 24" fill="none" xmlns="http://www.w3.org/2000/svg">
<path d="M13.9524 0.449121C20.2614 1.49384 24.5477 7.50397 23.519 13.7903C22.4718 20.1899 16.6548 24.4639 10.2039 23.5576C5.46638 22.8921 1.59671 19.2482 0.536346 14.5688C0.180906 13.0003 0.159402 11.1586 0.419322 9.95198C1.43985 5.21456 4.18535 2.06701 8.81831 0.703809C10.3698 0.247329 11.9579 0.118833 13.9524 0.449121ZM18.2062 8.48154C16.0619 5.19215 11.3801 4.48636 8.32396 6.92557C6.04934 8.74103 5.38996 11.8658 6.73708 14.4455C8.12673 17.1068 11.3053 18.5709 14.2382 17.9108C15.3221 17.6669 16.2986 17.2227 17.1986 16.4487C16.6176 15.9182 16.0765 15.4242 15.5303 14.9255C14.018 15.9413 12.4602 16.0617 10.8524 15.367C9.10396 14.6115 8.04907 12.7726 8.34734 11.0721C8.74607 8.79887 10.9005 7.37481 13.3126 7.78703C14.5012 7.99017 15.4647 8.57965 16.239 9.5242C16.8989 9.17442 17.5328 8.83847 18.2062 8.48154Z" fill="url(#paint0_linear_0_136)"/>
<path d="M18.206 8.48155C17.5325 8.83848 16.8987 9.17443 16.2388 9.52421C15.4645 8.57966 14.501 7.99018 13.3124 7.78704C10.9003 7.37482 8.74586 8.79888 8.34712 11.0721C8.0488 12.7727 9.10375 14.6115 10.8521 15.367C12.4599 16.0617 14.0177 15.9413 15.5301 14.9256C16.0763 15.4242 16.6174 15.9183 17.1984 16.4487C16.2984 17.2227 15.3219 17.6669 14.238 17.9108C11.3052 18.5708 8.12652 17.1067 6.73687 14.4456C5.38975 11.8658 6.04912 8.74104 8.32375 6.92558C11.3798 4.48637 16.0617 5.19221 18.206 8.48155Z" fill="white"/>
<defs>
<linearGradient id="paint0_linear_0_136" x1="5.10677" y1="21.7568" x2="18.7733" y2="2.18718" gradientUnits="userSpaceOnUse">
<stop stop-color="#EA4397"/>
<stop offset="1" stop-color="#DB207E"/>
</linearGradient>
</defs>
</svg>
