<svg width="64" height="64" viewBox="0 0 64 64" fill="none" xmlns="http://www.w3.org/2000/svg">
<path d="M32.27 0C49.77 0 64 14.6255 64 31.989C64 49.3525 49.792 63.968 32.27 63.968L0 64V31.4389C0 14.0856 14.75 0.00199993 32.27 0.00199993V0ZM32.584 12.1656C25.6679 12.1556 19.262 15.7695 15.688 21.6853C12.136 27.5712 11.99 34.9029 15.292 40.9348L11.73 52.2884L24.522 49.4245C31.834 52.6944 40.4279 51.2263 46.21 45.7166C52.002 40.2487 53.846 31.779 50.846 24.3952C47.826 16.9895 40.606 12.1556 32.606 12.1656H32.584Z" fill="#EE9453"/>
</svg>
