<svg width="202" height="24" viewBox="0 0 202 24" fill="none" xmlns="http://www.w3.org/2000/svg">
<path d="M0 0H6.54062V15.2703V17.4505H8.72969H15.2703V24H0V0Z" fill="#634CFF"/>
<path d="M17.4506 24V8.72969V6.54062H15.2704H8.72974V0H24V24H17.4506Z" fill="#634CFF"/>
<path d="M8.7356 12.0064C8.7356 13.8125 10.1998 15.2767 12.0059 15.2767C13.812 15.2767 15.2762 13.8125 15.2762 12.0064C15.2762 10.2003 13.812 8.73608 12.0059 8.73608C10.1998 8.73608 8.7356 10.2003 8.7356 12.0064Z" fill="#634CFF"/>
<path d="M131.182 6.1958H133.735V9.21403H136.348V11.3218H133.735V15.9234C133.735 16.4512 133.844 16.8371 134.062 17.0812C134.286 17.3253 134.642 17.4474 135.131 17.4474C135.434 17.4474 135.807 17.3847 136.249 17.2593V19.3078C136.084 19.3803 135.827 19.443 135.477 19.4958C135.127 19.5486 134.791 19.575 134.468 19.575C133.313 19.575 132.475 19.2517 131.954 18.6052C131.44 17.9586 131.182 17.0251 131.182 15.8047V11.3218H129.302V9.21403H131.182V6.1958Z" fill="white"/>
<path d="M120.226 15.1318C120.306 15.9234 120.596 16.5469 121.097 17.0021C121.599 17.4573 122.288 17.6849 123.165 17.6849C123.772 17.6849 124.307 17.5695 124.769 17.3386C125.23 17.1011 125.587 16.7778 125.837 16.3688H128.212C127.843 17.299 127.203 18.0675 126.293 18.6745C125.389 19.2748 124.346 19.575 123.165 19.575C121.477 19.575 120.144 19.0769 119.168 18.0807C118.198 17.0846 117.713 15.8113 117.713 14.2609C117.713 12.7304 118.211 11.467 119.207 10.4708C120.203 9.46806 121.48 8.96667 123.037 8.96667C124.607 8.96667 125.884 9.46477 126.867 10.4609C127.856 11.4571 128.351 12.737 128.351 14.3005V15.1318H120.226ZM123.086 10.7974C122.288 10.7974 121.635 11.0349 121.127 11.5099C120.626 11.9783 120.319 12.6248 120.207 13.4495H125.917C125.837 12.6512 125.547 12.0113 125.046 11.5297C124.544 11.0415 123.891 10.7974 123.086 10.7974Z" fill="white"/>
<path d="M112.993 19.3276V4.53333H115.546V19.3276H112.993Z" fill="white"/>
<path d="M107.649 19.3276V4.53333H110.203V19.3276H107.649Z" fill="white"/>
<path d="M104.848 9.21407V19.3276H102.404V17.5859C102.081 18.1533 101.593 18.6283 100.94 19.0109C100.286 19.387 99.5442 19.575 98.7129 19.575C97.7366 19.575 96.8558 19.3375 96.0708 18.8625C95.2857 18.3875 94.6787 17.7476 94.2499 16.9427C93.8211 16.1379 93.6067 15.2505 93.6067 14.2807C93.6067 13.3109 93.8211 12.4236 94.2499 11.6188C94.6787 10.8073 95.2857 10.1641 96.0708 9.68907C96.8558 9.20747 97.7366 8.96667 98.7129 8.96667C99.5706 8.96667 100.326 9.15799 100.979 9.54063C101.639 9.91667 102.101 10.3884 102.365 10.9557V9.21407H104.848ZM97.0109 12.0047C96.4435 12.6248 96.1598 13.3835 96.1598 14.2807C96.1598 15.178 96.4402 15.9333 97.001 16.5469C97.5683 17.1604 98.3006 17.4672 99.1978 17.4672C100.075 17.4672 100.811 17.1736 101.405 16.5865C101.998 15.9993 102.295 15.2307 102.295 14.2807C102.295 13.3307 101.995 12.5589 101.395 11.9651C100.801 11.3714 100.069 11.0745 99.1978 11.0745C98.3072 11.0745 97.5782 11.3846 97.0109 12.0047Z" fill="white"/>
<path d="M87.9167 15.3792L90.7569 5.13696H93.3891L89.035 19.3276H86.947L83.3845 8.6104L79.8121 19.3276H77.724L73.3699 5.13696H76.0022L78.8423 15.3792L82.3454 5.13696H84.4136L87.9167 15.3792Z" fill="white"/>
<path d="M64.7999 18.813C63.9422 19.321 62.9526 19.575 61.8311 19.575C60.7096 19.575 59.72 19.321 58.8624 18.813C58.0047 18.305 57.3582 17.6552 56.9228 16.8636C56.494 16.0653 56.2795 15.2043 56.2795 14.2807C56.2795 13.588 56.4082 12.925 56.6655 12.2917C56.9228 11.6517 57.2823 11.0844 57.7441 10.5896C58.2059 10.0948 58.7898 9.70227 59.4957 9.41199C60.2082 9.11511 60.9867 8.96667 61.8311 8.96667C62.6755 8.96667 63.4507 9.11511 64.1566 9.41199C64.8691 9.70227 65.4563 10.0948 65.9181 10.5896C66.3799 11.0844 66.7394 11.6517 66.9967 12.2917C67.254 12.925 67.3827 13.588 67.3827 14.2807C67.3827 15.2043 67.165 16.0653 66.7295 16.8636C66.3007 17.6552 65.6575 18.305 64.7999 18.813ZM63.4837 11.5594C63.0153 11.2559 62.4644 11.1042 61.8311 11.1042C61.1978 11.1042 60.6436 11.2559 60.1686 11.5594C59.7002 11.8629 59.3505 12.2521 59.1196 12.7271C58.8887 13.2021 58.7733 13.72 58.7733 14.2807C58.7733 15.1516 59.0471 15.8971 59.5946 16.5172C60.1422 17.1373 60.8877 17.4474 61.8311 17.4474C62.7745 17.4474 63.52 17.1373 64.0676 16.5172C64.6151 15.8971 64.8889 15.1516 64.8889 14.2807C64.8889 13.72 64.7735 13.2021 64.5426 12.7271C64.3117 12.2521 63.9587 11.8629 63.4837 11.5594Z" fill="white"/>
<path d="M46.6027 15.1318C46.6818 15.9234 46.9721 16.5469 47.4735 17.0021C47.9749 17.4573 48.6643 17.6849 49.5417 17.6849C50.1487 17.6849 50.683 17.5695 51.1448 17.3386C51.6066 17.1011 51.9629 16.7778 52.2136 16.3688H54.5886C54.2191 17.299 53.5792 18.0675 52.6688 18.6745C51.765 19.2748 50.7226 19.575 49.5417 19.575C47.8528 19.575 46.5202 19.0769 45.5438 18.0807C44.574 17.0846 44.0891 15.8113 44.0891 14.2609C44.0891 12.7304 44.5872 11.467 45.5834 10.4708C46.5796 9.46806 47.8561 8.96667 49.4131 8.96667C50.9832 8.96667 52.2598 9.46477 53.2428 10.4609C54.2323 11.4571 54.7271 12.737 54.7271 14.3005V15.1318H46.6027ZM49.4625 10.7974C48.6643 10.7974 48.0112 11.0349 47.5032 11.5099C47.0018 11.9783 46.695 12.6248 46.5829 13.4495H52.2928C52.2136 12.6512 51.9233 12.0113 51.4219 11.5297C50.9205 11.0415 50.2674 10.7974 49.4625 10.7974Z" fill="white"/>
<path d="M33.5986 5.13696H36.2309V17.0219H42.6929V19.3276H33.5986V5.13696Z" fill="white"/>
<g opacity="0.5">
<path d="M198.771 19.8184C198.094 20.1048 197.359 20.248 196.564 20.248C195.77 20.248 195.035 20.1048 194.357 19.8184C193.68 19.5319 193.117 19.151 192.668 18.6758C192.219 18.2005 191.867 17.6536 191.613 17.0352C191.366 16.4102 191.242 15.7591 191.242 15.082C191.242 14.1771 191.454 13.3372 191.877 12.5625C192.3 11.7812 192.922 11.1465 193.742 10.6582C194.569 10.1699 195.51 9.92578 196.564 9.92578C197.619 9.92578 198.557 10.1699 199.377 10.6582C200.204 11.1465 200.829 11.7812 201.252 12.5625C201.675 13.3372 201.887 14.1771 201.887 15.082C201.887 15.7591 201.76 16.4102 201.506 17.0352C201.258 17.6536 200.91 18.2005 200.461 18.6758C200.012 19.151 199.449 19.5319 198.771 19.8184ZM196.564 11.2246C195.803 11.2246 195.129 11.4102 194.543 11.7812C193.957 12.1458 193.514 12.6178 193.215 13.1973C192.915 13.7767 192.766 14.4049 192.766 15.082C192.766 15.7591 192.915 16.3874 193.215 16.9668C193.514 17.5462 193.957 18.0215 194.543 18.3926C195.129 18.7572 195.803 18.9395 196.564 18.9395C197.333 18.9395 198.01 18.7572 198.596 18.3926C199.182 18.0215 199.621 17.5462 199.914 16.9668C200.214 16.3874 200.363 15.7591 200.363 15.082C200.363 14.4049 200.214 13.7767 199.914 13.1973C199.621 12.6178 199.182 12.1458 198.596 11.7812C198.01 11.4102 197.333 11.2246 196.564 11.2246Z" fill="white"/>
<path d="M174.73 20.0039H173.168V10.1602H174.662V12.084C174.91 11.3874 175.342 10.8535 175.961 10.4824C176.579 10.1113 177.322 9.92578 178.188 9.92578C178.975 9.92578 179.656 10.1276 180.229 10.5312C180.808 10.9284 181.254 11.4915 181.566 12.2207C181.905 11.4915 182.4 10.9284 183.051 10.5312C183.702 10.1276 184.493 9.92578 185.424 9.92578C186.576 9.92578 187.501 10.3392 188.197 11.166C188.894 11.9928 189.242 13.0573 189.242 14.3594V20.0039H187.709V14.6621C187.709 13.64 187.481 12.8294 187.025 12.2305C186.576 11.625 185.896 11.3223 184.984 11.3223C184.112 11.3223 183.393 11.6283 182.826 12.2402C182.266 12.8457 181.986 13.6139 181.986 14.5449V20.0039H180.443V14.6621C180.443 13.64 180.219 12.8294 179.77 12.2305C179.32 11.625 178.64 11.3223 177.729 11.3223C176.85 11.3223 176.13 11.638 175.57 12.2695C175.01 12.901 174.73 13.6855 174.73 14.623V20.0039Z" fill="white"/>
<path d="M162.506 15.7266C162.63 16.7617 163.01 17.5755 163.648 18.168C164.293 18.7539 165.133 19.0469 166.168 19.0469C166.91 19.0469 167.568 18.8906 168.141 18.5781C168.72 18.2656 169.163 17.862 169.469 17.3672H170.943C170.546 18.207 169.921 18.8971 169.068 19.4375C168.222 19.9779 167.262 20.248 166.188 20.248C165.133 20.248 164.202 20.0137 163.395 19.5449C162.594 19.0697 161.988 18.4447 161.578 17.6699C161.168 16.8952 160.963 16.0326 160.963 15.082C160.963 14.125 161.178 13.2559 161.607 12.4746C162.044 11.6934 162.656 11.0749 163.443 10.6191C164.231 10.1569 165.117 9.92578 166.1 9.92578C167.115 9.92578 168.01 10.1536 168.785 10.6094C169.56 11.0586 170.149 11.6641 170.553 12.4258C170.963 13.1875 171.168 14.0404 171.168 14.9844V15.7266H162.506ZM166.129 11.0879C165.139 11.0879 164.312 11.4036 163.648 12.0352C162.984 12.6602 162.597 13.4902 162.486 14.5254H169.703C169.625 13.5098 169.267 12.6829 168.629 12.0449C167.997 11.4069 167.164 11.0879 166.129 11.0879Z" fill="white"/>
<path d="M147 20.0039V6H150.76C152.081 6 153.27 6.1888 154.324 6.56641C155.385 6.9375 156.248 7.44531 156.912 8.08984C157.576 8.73438 158.084 9.47656 158.436 10.3164C158.787 11.1497 158.963 12.0449 158.963 13.002C158.963 13.959 158.787 14.8574 158.436 15.6973C158.084 16.5306 157.576 17.2695 156.912 17.9141C156.248 18.5586 155.385 19.0697 154.324 19.4473C153.27 19.8184 152.081 20.0039 150.76 20.0039H147ZM148.582 18.6465H150.643C151.743 18.6465 152.723 18.5065 153.582 18.2266C154.441 17.9466 155.145 17.556 155.691 17.0547C156.238 16.5469 156.652 15.9512 156.932 15.2676C157.218 14.584 157.361 13.8288 157.361 13.002C157.361 12.1751 157.218 11.4199 156.932 10.7363C156.652 10.0527 156.238 9.46029 155.691 8.95898C155.145 8.45117 154.441 8.06055 153.582 7.78711C152.723 7.50716 151.743 7.36719 150.643 7.36719H148.582V18.6465Z" fill="white"/>
</g>
</svg>
