<svg width="24" height="24" viewBox="0 0 24 24" fill="none" xmlns="http://www.w3.org/2000/svg">
<path d="M12 24C18.6274 24 24 18.6274 24 12C24 5.37258 18.6274 0 12 0C5.37258 0 0 5.37258 0 12C0 18.6274 5.37258 24 12 24Z" fill="#FACFD8"/>
<path d="M9.18584 15.5609C9.60284 15.5609 9.95084 15.6989 10.2328 15.9749C10.5148 16.2509 10.6558 16.6019 10.6558 17.0309C10.6558 17.4599 10.5148 17.8079 10.2328 18.0779C9.95084 18.3479 9.60284 18.4829 9.18584 18.4829C8.78084 18.4829 8.43584 18.3479 8.14784 18.0779C7.85984 17.8079 7.71584 17.4599 7.71584 17.0309C7.71584 16.6019 7.85984 16.2509 8.14784 15.9749C8.43584 15.6959 8.78384 15.5609 9.18584 15.5609ZM14.8048 15.5609C15.2218 15.5609 15.5698 15.6989 15.8518 15.9749C16.1338 16.2509 16.2748 16.6019 16.2748 17.0309C16.2748 17.4599 16.1338 17.8079 15.8518 18.0779C15.5698 18.3479 15.2218 18.4829 14.8048 18.4829C14.3998 18.4829 14.0548 18.3479 13.7668 18.0779C13.4788 17.8079 13.3348 17.4599 13.3348 17.0309C13.3348 16.6019 13.4788 16.2509 13.7668 15.9749C14.0548 15.6959 14.4028 15.5609 14.8048 15.5609ZM10.3798 5.52295V8.93695V9.01195C10.3798 9.32395 10.3738 9.62695 10.3678 9.92395C10.8958 9.85795 11.4358 9.82795 11.9878 9.82795C12.5518 9.82795 13.1038 9.86095 13.6438 9.92995C13.6348 9.60895 13.6318 9.27895 13.6318 8.93695V5.52295H16.0018V8.93695V9.01195C16.0018 9.51295 15.9898 9.99595 15.9718 10.4549C16.1248 10.5059 16.2748 10.5599 16.4248 10.6169C17.8108 11.1449 19.0468 11.8619 20.1358 12.7709L19.1938 14.2019L19.1458 14.1659C18.1588 13.4429 17.0698 12.8759 15.8788 12.4679C15.8608 12.4619 15.8428 12.4559 15.8248 12.4499C15.7648 13.0559 15.6958 13.6649 15.6178 14.2769H14.0398L14.0188 14.1269C13.9168 13.4039 13.8358 12.6839 13.7698 11.9669C13.1938 11.8859 12.6028 11.8469 11.9938 11.8469C11.3968 11.8469 10.8178 11.8859 10.2568 11.9639C10.1878 12.7319 10.1038 13.5029 10.0018 14.2799H8.42384L8.40284 14.1299C8.32484 13.5659 8.25584 13.0049 8.19884 12.4439L8.16884 12.4529L8.11484 12.4709C6.90884 12.8849 5.79884 13.4639 4.79084 14.2019L3.83984 12.7679L3.88484 12.7289C4.96184 11.8379 6.18584 11.1329 7.55084 10.6139C7.71284 10.5509 7.87484 10.4939 8.03984 10.4399C8.01884 9.95995 8.00984 9.45595 8.00984 8.93395V5.52295H10.3798Z" fill="#EC6998"/>
</svg>
