<svg width="129" height="128" viewBox="0 0 129 128" fill="none" xmlns="http://www.w3.org/2000/svg">
<path d="M4.44019 57.0059V123.563C4.44019 126.013 6.42663 128 8.87731 128H119.805C122.256 128 124.242 126.013 124.242 123.563V57.0059H4.44019Z" fill="#157B9E"/>
<path d="M106.495 68.0957H22.1896C19.7389 68.0957 17.7524 70.0821 17.7524 72.5328V127.997H110.932V72.5328C110.932 70.0821 108.946 68.0957 106.495 68.0957Z" fill="#024456"/>
<path d="M128.338 42.8738L118.724 19.8008C118.035 18.1474 116.419 17.0703 114.628 17.0703H14.0537C12.2625 17.0703 10.6468 18.1474 9.95793 19.8008L0.344067 42.8738C0.118606 43.4146 0.00268555 43.9948 0.00268555 44.5805V52.5673C0.00268555 55.018 1.98913 57.0044 4.43981 57.0044H124.242C126.693 57.0044 128.679 55.018 128.679 52.5673V44.5805C128.679 43.9948 128.563 43.4146 128.338 42.8738Z" fill="#157B9E"/>
<path d="M0.0892548 43.7194L128.592 43.6914C128.616 43.8076 128.637 43.9346 128.653 44.0713C128.67 44.2175 128.678 44.3545 128.681 44.4801C128.681 47.1754 128.682 49.8704 128.682 52.5657C128.682 55.0163 126.695 57.0028 124.245 57.0028H4.44235C1.99167 57.0028 0.00522692 55.0163 0.00522692 52.5657V44.9122C-0.00309268 44.7258 -0.00253793 44.5162 0.0146559 44.2882C0.0304632 44.0799 0.057363 43.8897 0.0892548 43.7194Z" fill="#03628C"/>
<path d="M39.9399 32.5977H88.7483V37.0348H39.9399V32.5977Z" fill="#03628C"/>
<path d="M101.472 119.123L91.9473 83.1133C91.3913 80.8898 89.2335 79.4554 86.9681 79.804L37.9686 87.3424C35.5465 87.7152 33.8851 89.9806 34.2578 92.4027C34.2728 92.4992 34.2908 92.5952 34.3119 92.6906L39.9393 119.123H101.472Z" fill="#03628C"/>
<path d="M70.9998 119.123L72.8059 99.2565C73.0278 96.816 75.1862 95.0174 77.6266 95.2392C77.6654 95.2428 77.7045 95.2467 77.7433 95.2514L110.934 99.1564V127.998H70.9998V119.123Z" fill="#035D7C"/>
<path d="M17.7524 112.471L58.4342 100.266C60.5507 99.6309 62.812 100.65 63.7379 102.656L75.435 128H17.7524V112.471Z" fill="#00566D"/>
<path d="M87.9175 4.72035L68.6459 0.121546C66.6745 -0.348789 64.6348 0.576351 63.6902 2.3695L46.5962 34.819H79.8746L90.9161 10.8957C91.943 8.67077 90.9719 6.03457 88.7469 5.00765C88.4804 4.8848 88.2025 4.78857 87.9175 4.72035Z" fill="#E2493D"/>
</svg>
