<svg width="32" height="32" viewBox="0 0 32 32" fill="none" xmlns="http://www.w3.org/2000/svg">
<circle cx="16" cy="16" r="16" fill="#F7F7F7"/>
<path d="M17.4472 15.3462C16.3186 16.4911 16.5376 18.5371 16.5376 18.5371C16.5376 18.5371 18.5877 18.7277 19.7163 17.5828C20.5593 16.7275 20.6505 15.3704 20.6426 14.7368C20.6401 14.5368 20.4784 14.3775 20.2784 14.378C19.6451 14.3795 18.2901 14.491 17.4472 15.3462Z" fill="#7CC558"/>
<path d="M12.2846 16.9447C13.8039 18.4422 16.5187 18.1515 16.5187 18.1515C16.5187 18.1515 16.7717 15.4312 15.2525 13.9337C14.1176 12.8151 12.3168 12.6941 11.4761 12.7047C11.2107 12.7081 10.9994 12.9226 11 13.188C11.002 14.0284 11.1499 15.8262 12.2846 16.9447Z" fill="#7CC558"/>
<path d="M21.0454 12.3244C19.8438 14.0871 17.124 14.3261 17.124 14.3261C17.124 14.3261 16.3504 11.7058 17.5519 9.94317C18.4494 8.62649 20.193 8.16002 21.0199 8.0081C21.2809 7.96015 21.5297 8.12983 21.5803 8.39033C21.7407 9.2153 21.9428 11.0079 21.0454 12.3244Z" fill="#7CC558"/>
<path d="M13.6094 15.5527C13.6358 15.558 15.7581 16.0219 16.2646 18.7124C16.2498 18.821 16.4835 19.492 16.3083 20.982C16.2688 21.3182 16.7756 21.3802 16.8155 21.0417C16.9199 20.1538 16.8963 19.3972 16.7888 18.7486C17.3931 17.1183 19.0937 16.2409 19.111 16.2321C19.2367 16.1685 19.2873 16.015 19.2238 15.8891C19.1603 15.7635 19.007 15.713 18.8811 15.7761C18.8173 15.8082 17.6007 16.4332 16.7864 17.6465C16.5758 14.0975 19.5633 11.2229 19.595 11.1931C19.6974 11.0962 19.7019 10.9346 19.6051 10.8322C19.5083 10.7298 19.3469 10.7252 19.2443 10.8218C19.1144 10.9445 16.3295 13.6186 16.2637 17.1405C15.3472 15.4092 13.7346 15.057 13.71 15.0521C13.572 15.0244 13.4373 15.1139 13.4093 15.2521C13.3816 15.3903 13.4711 15.5249 13.6094 15.5527Z" fill="#A86A3F"/>
<path d="M21.4939 24H11.6621C11.6621 22.2184 14.8762 20.7095 16.1071 20.197C16.4098 20.071 16.7479 20.071 17.0506 20.1971C18.2812 20.7096 21.4939 22.2184 21.4939 24Z" fill="#7CC558"/>
</svg>
