<svg width="32" height="32" viewBox="0 0 32 32" fill="none" xmlns="http://www.w3.org/2000/svg">
<circle cx="16" cy="16" r="16" fill="#F7F7F7"/>
<path d="M14.6195 13.1767C12.4673 14.7899 10 18.0704 10 20.6312C10 24.2204 12.9097 23.9973 16.4989 23.9973C20.0881 23.9973 22.9978 24.2204 22.9978 20.6312C22.9978 18.0704 20.5271 14.7899 18.3748 13.1767H14.6195Z" fill="#A86A3F"/>
<path d="M16.5582 8C16.0646 8.00086 15.5996 8.38444 15.3006 9.03732C14.5956 8.30274 13.7717 8.03222 13.215 8.35255C12.0379 9.16664 12.7941 11.0172 13.6271 12.0431C13.7424 11.5821 14.0545 11.289 14.5522 11.289H18.4464C18.9445 11.289 19.2692 11.6388 19.3842 12.1003C20.3136 11.2602 20.8451 9.05523 19.7836 8.35255C19.2495 8.0457 18.4672 8.28159 17.7783 8.95711C17.4777 8.35141 17.0303 8.00045 16.5582 8Z" fill="#A86A3F"/>
<path d="M19.8619 19.0689C19.8619 19.5105 19.7749 19.9478 19.6059 20.3557C19.4369 20.7637 19.1892 21.1344 18.877 21.4466C18.5648 21.7589 18.1941 22.0066 17.7861 22.1755C17.3781 22.3445 16.9409 22.4315 16.4993 22.4315C16.0577 22.4315 15.6205 22.3445 15.2125 22.1755C14.8045 22.0066 14.4338 21.7589 14.1216 21.4466C13.8093 21.1344 13.5617 20.7637 13.3927 20.3557C13.2237 19.9478 13.1367 19.5105 13.1367 19.0689C13.1367 18.1771 13.491 17.3218 14.1216 16.6912C14.7522 16.0606 15.6075 15.7064 16.4993 15.7064C17.3911 15.7064 18.2464 16.0606 18.877 16.6912C19.5076 17.3218 19.8619 18.1771 19.8619 19.0689Z" fill="#EFC75E"/>
<path d="M14.5518 11.1559H18.446C19.0335 11.1559 19.5065 11.6289 19.5065 12.2164C19.5065 12.8039 19.0335 13.2769 18.446 13.2769H14.5518C13.9642 13.2769 13.4913 12.8039 13.4913 12.2164C13.4913 11.6289 13.9642 11.1559 14.5518 11.1559Z" fill="#EFC75E"/>
<path d="M16.231 17.4069V17.5147C15.1882 17.8295 15.4483 19.3748 16.4872 19.3748C17.0661 19.3748 16.9906 20.2205 16.5184 20.2205C16.294 20.2205 16.1384 20.1147 16.0815 19.9023C15.9934 19.552 15.4673 19.6928 15.566 20.0403C15.6552 20.3732 15.9165 20.6175 16.231 20.7063V20.7527C16.2229 21.1162 16.7723 21.1162 16.7642 20.7527V20.7001C17.814 20.2876 17.4522 18.8416 16.5085 18.8416C15.9188 18.8416 15.9959 17.9881 16.4742 17.9881C16.7362 17.9881 16.8619 18.1189 16.9142 18.3141C17.0008 18.6688 17.5339 18.5245 17.4297 18.1745C17.3406 17.8415 17.0788 17.5972 16.7642 17.5084V17.4069C16.7642 16.9788 16.231 17.0518 16.231 17.4069Z" fill="#A86A3F"/>
</svg>
