<svg width="32" height="32" viewBox="0 0 32 32" fill="none" xmlns="http://www.w3.org/2000/svg">
<circle cx="16" cy="16" r="16" fill="#F7F7F7"/>
<path d="M22.9334 10.2499C23.5938 10.3348 24.0648 10.9326 23.9927 11.5945L23.0556 19.8863C22.9835 20.5462 22.3901 21.0228 21.7302 20.9507C21.717 20.9493 21.7038 20.9476 21.6906 20.9457H21.6295V13.3466C21.6295 12.6715 21.0822 12.1242 20.4071 12.1242H10.2207L10.4448 10.0869C10.5297 9.4153 11.1366 8.93519 11.8097 9.00714L22.9334 10.2499Z" fill="#00ACEA"/>
<path d="M21.6295 20.9457V21.6791C21.6295 22.3542 21.0822 22.9015 20.4071 22.9015H9.22238C8.5473 22.9015 8 22.3542 8 21.6791V19.9678L11.3615 17.523C11.8945 17.1186 12.6403 17.1529 13.134 17.6045L15.375 19.5603C15.8447 19.9587 16.5151 20.0159 17.0456 19.7029L21.6295 17.0137V20.9457Z" fill="#00CEB4"/>
<path d="M21.6295 13.3466V17.0137L17.0456 19.7029C16.5151 20.0159 15.8447 19.9587 15.375 19.5603L13.134 17.6045C12.6403 17.153 11.8945 17.1187 11.3615 17.523L8 19.9678V13.3466C8 12.6715 8.5473 12.1242 9.22238 12.1242H20.4071C21.0822 12.1242 21.6295 12.6715 21.6295 13.3466Z" fill="#00EFD1"/>
<path d="M16.1496 16.7693C16.8697 16.7693 17.4535 16.1855 17.4535 15.4654C17.4535 14.7453 16.8697 14.1615 16.1496 14.1615C15.4295 14.1615 14.8457 14.7453 14.8457 15.4654C14.8457 16.1855 15.4295 16.7693 16.1496 16.7693Z" fill="#D4E1F4"/>
</svg>
