<svg width="40" height="40" viewBox="0 0 40 40" fill="none" xmlns="http://www.w3.org/2000/svg">
<path d="M20 40C31.0457 40 40 31.0457 40 20C40 8.95431 31.0457 0 20 0C8.95431 0 0 8.95431 0 20C0 31.0457 8.95431 40 20 40Z" fill="#F7F7F7"/>
<path fill-rule="evenodd" clip-rule="evenodd" d="M12.3581 11.7536C11.9933 9.8 13.4861 8 15.4733 8C17.2253 8 18.6413 9.4208 18.6413 11.168V15.0752C19.0781 15.0464 19.5245 15.0272 19.9757 15.0272C20.4077 15.0272 20.8349 15.0416 21.2573 15.0704V11.168C21.2573 9.416 22.6781 8 24.4253 8C26.4077 8 27.9053 9.8 27.5405 11.7536L26.6813 16.3472C29.6285 17.6288 31.8557 19.8608 31.8557 22.6688V24.368C31.8557 26.6768 30.3293 28.6064 28.1981 29.9072C26.0429 31.2176 23.1341 32 19.9757 32C16.8125 32 13.9085 31.2176 11.7581 29.9072C9.6221 28.6016 8.0957 26.672 8.0957 24.3632V22.664C8.0957 19.8752 10.2989 17.648 13.2173 16.3616L12.3581 11.7536ZM25.5821 16.9472L26.5853 11.5712C26.8397 10.2176 25.7981 8.9696 24.4205 8.9696C23.2061 8.9696 22.2221 9.9536 22.2221 11.168V16.1408C21.9053 16.0976 21.5789 16.0688 21.2525 16.0448C20.8301 16.016 20.4029 16.0016 19.9709 16.0016C19.5197 16.0016 19.0733 16.016 18.6365 16.0496C18.3101 16.0736 17.9837 16.1072 17.6669 16.1504V11.168C17.6669 9.9536 16.6829 8.9696 15.4685 8.9696C14.0909 8.9696 13.0541 10.2176 13.3037 11.5712L14.3117 16.9616C11.1677 18.1328 9.0653 20.2496 9.0653 22.6688V24.368C9.0653 28.0496 13.9517 31.0352 19.9757 31.0352C25.9997 31.0352 30.8861 28.0496 30.8861 24.368V22.6688C30.8813 20.24 28.7597 18.1136 25.5821 16.9472Z" fill="#633001"/>
<path d="M30.8813 24.3632C30.8813 28.0448 25.9949 31.0304 19.9709 31.0304C13.9469 31.0304 9.06055 28.0448 9.06055 24.3632V22.664H30.8765V24.3632H30.8813Z" fill="#FEDC90"/>
<path fill-rule="evenodd" clip-rule="evenodd" d="M13.3086 11.5712C13.0542 10.2176 14.0958 8.9696 15.4734 8.9696C16.6878 8.9696 17.6718 9.9536 17.6718 11.168V16.1456C18.4158 16.0496 19.1838 15.9968 19.9758 15.9968C20.7486 15.9968 21.5022 16.0448 22.227 16.1408V11.168C22.227 9.9536 23.211 8.9696 24.4254 8.9696C25.803 8.9696 26.8398 10.2176 26.5902 11.5712L25.587 16.9472C28.7598 18.1136 30.8862 20.24 30.8862 22.664C30.8862 26.3456 25.9998 29.3312 19.9758 29.3312C13.9518 29.3312 9.06543 26.3456 9.06543 22.664C9.06543 20.2496 11.1678 18.1328 14.3166 16.9616L13.3086 11.5712Z" fill="#D1884F"/>
<path d="M16.9424 22.184C16.9424 23.1872 16.4 24.0032 15.728 24.0032C15.056 24.0032 14.5136 23.1872 14.5136 22.184C14.5136 21.1808 15.056 20.3648 15.728 20.3648C16.4 20.3648 16.9424 21.176 16.9424 22.184Z" fill="#633001"/>
<path d="M25.3087 22.184C25.3087 23.1872 24.7663 24.0032 24.0943 24.0032C23.4271 24.0032 22.8799 23.1872 22.8799 22.184C22.8799 21.1808 23.4223 20.3648 24.0943 20.3648C24.7663 20.3648 25.3087 21.176 25.3087 22.184Z" fill="#633001"/>
</svg>
