<svg width="40" height="40" viewBox="0 0 40 40" fill="none" xmlns="http://www.w3.org/2000/svg">
<path d="M20 40C31.0457 40 40 31.0457 40 20C40 8.95431 31.0457 0 20 0C8.95431 0 0 8.95431 0 20C0 31.0457 8.95431 40 20 40Z" fill="#F7F7F7"/>
<path d="M20.058 8C23.9471 8 27.1023 11.2101 27.1023 15.1609V19.2832C27.1023 23.2409 23.9471 26.4441 20.058 26.4441C19.4476 26.4441 18.8508 26.3618 18.2884 26.2178V26.7048C18.2884 29.5993 15.97 31.952 13.0892 32H13V16.2378H13.0069V15.1609C13.0069 11.2101 16.162 8 20.058 8ZM20.058 13.3707C19.084 13.3707 18.2952 14.1732 18.2952 15.1609V19.2832C18.2952 20.2709 19.084 21.0735 20.058 21.0735C21.032 21.0735 21.8208 20.2709 21.8208 19.2832V15.1609C21.8139 14.1732 21.0251 13.3707 20.058 13.3707Z" fill="url(#paint0_linear_0_177)"/>
<defs>
<linearGradient id="paint0_linear_0_177" x1="20.0512" y1="8" x2="20.0512" y2="32" gradientUnits="userSpaceOnUse">
<stop stop-color="#7E46F2"/>
<stop offset="1" stop-color="#46279A"/>
</linearGradient>
</defs>
</svg>
