<svg width="40" height="40" viewBox="0 0 40 40" fill="none" xmlns="http://www.w3.org/2000/svg">
<path d="M20 40C31.0457 40 40 31.0457 40 20C40 8.95431 31.0457 0 20 0C8.95431 0 0 8.95431 0 20C0 31.0457 8.95431 40 20 40Z" fill="#F7F7F7"/>
<g clip-path="url(#clip0_0_4760)">
<path d="M17.7534 13.4624C17.4942 13.424 17.4798 13.4144 17.6046 13.4C17.8398 13.3616 18.387 13.4144 18.771 13.5008C19.6638 13.712 20.4654 14.2544 21.3198 15.2096L21.5406 15.4688L21.8622 15.4208C23.235 15.2 24.6462 15.3728 25.827 15.9152C26.1486 16.064 26.6574 16.3616 26.7198 16.4336C26.7438 16.4576 26.7822 16.6208 26.8062 16.7792C26.8926 17.36 26.8542 17.7968 26.6718 18.128C26.571 18.3152 26.571 18.3632 26.6334 18.5264C26.6814 18.6512 26.8302 18.7376 26.9694 18.7376C27.267 18.7376 27.5742 18.2672 27.723 17.6096L27.7854 17.3504L27.8958 17.4752C28.5294 18.1808 29.0238 19.16 29.0958 19.8512L29.1198 20.0384L29.0094 19.8752C28.8222 19.592 28.6494 19.4048 28.4142 19.2416C27.9918 18.9584 27.5454 18.872 26.3694 18.8096C25.3038 18.7472 24.699 18.6608 24.1038 18.464C23.0862 18.128 22.5678 17.696 21.3678 16.0976C20.835 15.392 20.499 15.008 20.1678 14.6864C19.4382 13.9808 18.7038 13.6112 17.7534 13.4624Z" fill="#FF007A"/>
<path d="M26.9794 15.032C27.0034 14.5616 27.0658 14.2496 27.2002 13.9664C27.2482 13.856 27.301 13.7552 27.3106 13.7552C27.325 13.7552 27.2962 13.8416 27.2626 13.9424C27.1618 14.216 27.1522 14.6 27.2146 15.032C27.301 15.5888 27.3394 15.6656 27.9346 16.2704C28.2082 16.5536 28.5298 16.9136 28.6546 17.0624L28.8658 17.336L28.6546 17.1392C28.3954 16.8896 27.8002 16.4192 27.6658 16.3568C27.5794 16.3088 27.565 16.3088 27.5026 16.3712C27.4546 16.4192 27.4402 16.496 27.4402 16.856C27.4258 17.4128 27.3538 17.7584 27.1666 18.1184C27.0658 18.3056 27.0562 18.2672 27.1426 18.056C27.205 17.8928 27.2146 17.8208 27.2146 17.288C27.2146 16.2128 27.0898 15.9488 26.3362 15.5168C26.149 15.4064 25.8274 15.2432 25.645 15.1568C25.4482 15.0704 25.2994 14.9936 25.309 14.9936C25.333 14.9696 26.0626 15.1808 26.3506 15.3008C26.7826 15.4736 26.8594 15.488 26.9074 15.4736C26.941 15.4448 26.965 15.344 26.9794 15.032Z" fill="#FF007A"/>
<path d="M18.2628 16.88C17.7444 16.16 17.4084 15.0464 17.4804 14.216L17.5044 13.9568L17.6292 13.9808C17.85 14.0192 18.234 14.168 18.4212 14.2784C18.9156 14.576 19.1412 14.984 19.3476 16.0016C19.41 16.2992 19.4964 16.6448 19.5348 16.7552C19.5972 16.9424 19.8324 17.3744 20.0292 17.648C20.1636 17.8448 20.0772 17.9456 19.77 17.9216C19.2996 17.8688 18.6708 17.4368 18.2628 16.88Z" fill="#FF007A"/>
<path d="M26.3451 22.2656C23.8923 21.2768 23.0283 20.4224 23.0283 18.9728C23.0283 18.7616 23.0427 18.5888 23.0427 18.5888C23.0571 18.5888 23.1435 18.6608 23.2539 18.752C23.7483 19.1504 24.3051 19.3232 25.8555 19.544C26.7579 19.6784 27.2811 19.7792 27.7515 19.9424C29.2491 20.4368 30.1803 21.4544 30.4011 22.8272C30.4635 23.2256 30.4251 23.9792 30.3291 24.3728C30.2427 24.68 29.9931 25.2512 29.9307 25.2656C29.9163 25.2656 29.8923 25.2032 29.8923 25.1024C29.8683 24.584 29.6091 24.0848 29.1723 23.7008C28.6491 23.2592 27.9819 22.9232 26.3451 22.2656Z" fill="#FF007A"/>
<path d="M24.6124 22.6736C24.5884 22.4864 24.526 22.2512 24.4876 22.1552L24.4252 21.968L24.5356 22.1024C24.6988 22.2896 24.8188 22.5104 24.934 22.8224C25.0204 23.0576 25.0204 23.1296 25.0204 23.5136C25.0204 23.8832 25.006 23.9696 24.934 24.1808C24.8092 24.5168 24.6604 24.752 24.4156 25.0112C23.9692 25.4672 23.3884 25.7168 22.558 25.8272C22.4092 25.8416 21.9868 25.8752 21.6172 25.8992C20.6908 25.9472 20.0716 26.048 19.51 26.2448C19.438 26.2688 19.3612 26.2928 19.3468 26.2832C19.3228 26.2592 19.7068 26.0336 20.014 25.8848C20.446 25.6736 20.8924 25.5632 21.8716 25.3904C22.3564 25.3184 22.8508 25.2176 22.9756 25.1696C24.2044 24.7904 24.8092 23.84 24.6124 22.6736Z" fill="#FF007A"/>
<path d="M25.741 24.6704C25.4194 23.9648 25.3426 23.2976 25.5202 22.664C25.5442 22.6016 25.5682 22.5392 25.5922 22.5392C25.6162 22.5392 25.693 22.5776 25.765 22.6256C25.9138 22.7264 26.221 22.8992 27.0178 23.3312C28.021 23.8784 28.5922 24.296 28.9858 24.7808C29.3314 25.2032 29.5426 25.6832 29.6434 26.2784C29.7058 26.6144 29.6674 27.416 29.581 27.752C29.3074 28.8032 28.6882 29.648 27.7858 30.128C27.6514 30.2 27.5362 30.2528 27.5266 30.2528C27.517 30.2528 27.565 30.128 27.637 29.9792C27.9346 29.3456 27.973 28.7408 27.7474 28.0592C27.613 27.6368 27.325 27.1328 26.7586 26.2736C26.0722 25.2896 25.9138 25.0256 25.741 24.6704Z" fill="#FF007A"/>
<path d="M16.5151 28.4576C17.4319 27.6896 18.5599 27.1472 19.5967 26.9696C20.0431 26.8976 20.7871 26.9216 21.1951 27.032C21.8527 27.2048 22.4479 27.5792 22.7551 28.0352C23.0527 28.4816 23.1871 28.8656 23.3263 29.72C23.3743 30.056 23.4367 30.4016 23.4511 30.4736C23.5519 30.92 23.7487 31.2656 23.9983 31.4528C24.3823 31.736 25.0495 31.7504 25.7071 31.5008C25.8175 31.4624 25.9183 31.4288 25.9183 31.4384C25.9423 31.4624 25.6111 31.688 25.3855 31.7984C25.0783 31.9616 24.8287 32.0096 24.4927 32.0096C23.8975 32.0096 23.3887 31.7024 22.9807 31.0832C22.8943 30.9584 22.7215 30.5984 22.5727 30.2672C22.1407 29.264 21.9151 28.9664 21.4063 28.6304C20.9599 28.3472 20.3887 28.2848 19.9567 28.496C19.3855 28.7696 19.2367 29.4992 19.6351 29.9456C19.7983 30.1328 20.0911 30.2816 20.3407 30.3152C20.7967 30.3776 21.1951 30.0176 21.1951 29.5616C21.1951 29.264 21.0847 29.0912 20.7871 28.9568C20.3887 28.784 19.9567 28.9808 19.9711 29.3648C19.9711 29.528 20.0431 29.624 20.2063 29.7008C20.3071 29.7488 20.3071 29.7488 20.2303 29.7392C19.8703 29.6672 19.7839 29.2208 20.0671 28.9328C20.4127 28.5872 21.1423 28.736 21.3919 29.216C21.4927 29.4128 21.5023 29.8112 21.4159 30.056C21.2047 30.6032 20.6095 30.8864 20.0047 30.7232C19.5967 30.6128 19.4239 30.5024 18.9295 29.9936C18.0607 29.1008 17.7295 28.928 16.4911 28.7408L16.2559 28.7024L16.5151 28.4576Z" fill="#FF007A"/>
<path fill-rule="evenodd" clip-rule="evenodd" d="M10.0013 8.5328C12.8861 12.0368 17.3309 17.4848 17.5565 17.7824C17.7437 18.032 17.6669 18.2672 17.3597 18.44C17.1869 18.5408 16.8269 18.6368 16.6541 18.6368C16.4573 18.6368 16.2221 18.536 16.0589 18.3776C15.9485 18.2672 15.4637 17.5616 14.3741 15.8624C13.5437 14.5616 12.8381 13.4864 12.8285 13.472C12.7805 13.448 12.7805 13.448 14.2877 16.1456C15.2429 17.84 15.5501 18.4496 15.5501 18.5216C15.5501 18.6848 15.5021 18.7712 15.3005 18.992C14.9645 19.3616 14.8157 19.784 14.7053 20.6624C14.5805 21.6416 14.2493 22.3328 13.2941 23.5088C12.7373 24.2 12.6509 24.3248 12.5117 24.6128C12.3389 24.9584 12.2909 25.16 12.2621 25.6016C12.2381 26.072 12.2861 26.3696 12.4253 26.816C12.5501 27.2144 12.6845 27.4736 13.0205 27.9824C13.3037 28.4288 13.4765 28.7648 13.4765 28.8848C13.4765 28.9856 13.5005 28.9856 13.9469 28.8848C15.0125 28.6352 15.8909 28.2176 16.3757 27.6944C16.6733 27.3728 16.7453 27.2 16.7453 26.7536C16.7453 26.4704 16.7309 26.408 16.6589 26.2352C16.5341 25.9616 16.2989 25.7408 15.7901 25.3952C15.1229 24.9392 14.8349 24.5648 14.7629 24.0704C14.7005 23.648 14.7773 23.3648 15.1469 22.5824C15.5309 21.776 15.6317 21.4448 15.6941 20.624C15.7325 20.1056 15.7949 19.8944 15.9437 19.7312C16.1069 19.5584 16.2413 19.496 16.6253 19.448C17.2589 19.3616 17.6669 19.1984 17.9885 18.8912C18.2717 18.632 18.3965 18.3728 18.4109 17.9888L18.4253 17.7056L18.2621 17.5328C17.6765 16.8656 9.61725 8 9.57885 8C9.56445 8 9.76605 8.2352 10.0013 8.5328ZM13.8029 26.144C13.9373 25.9088 13.8653 25.6112 13.6397 25.4624C13.4285 25.328 13.1069 25.3904 13.1069 25.5728C13.1069 25.6208 13.1309 25.6736 13.2077 25.6976C13.3181 25.76 13.3325 25.8224 13.2461 25.9568C13.1597 26.0912 13.1597 26.216 13.2701 26.3024C13.4429 26.4416 13.6781 26.3648 13.8029 26.144Z" fill="#FF007A"/>
<path fill-rule="evenodd" clip-rule="evenodd" d="M18.8195 19.6304C18.5219 19.7168 18.2387 20.0384 18.1523 20.36C18.1043 20.5568 18.1283 20.9168 18.2147 21.0272C18.3491 21.2 18.4739 21.248 18.8195 21.248C19.5011 21.248 20.0819 20.9504 20.1443 20.5904C20.2067 20.2928 19.9475 19.8848 19.5875 19.6976C19.4003 19.6016 19.0163 19.568 18.8195 19.6304ZM19.6115 20.2496C19.7123 20.1008 19.6739 19.9424 19.4867 19.8272C19.1507 19.616 18.6467 19.7888 18.6467 20.1104C18.6467 20.2736 18.9059 20.4464 19.1555 20.4464C19.3139 20.4464 19.5347 20.3456 19.6115 20.2496Z" fill="#FF007A"/>
</g>
<defs>
<clipPath id="clip0_0_4760">
<rect width="24" height="24" fill="white" transform="translate(8 8)"/>
</clipPath>
</defs>
</svg>
