<svg width="32" height="32" viewBox="0 0 32 32" fill="none" xmlns="http://www.w3.org/2000/svg">
<circle cx="16" cy="16" r="16" fill="#F7F7F7"/>
<path d="M9.25001 10.7678H21.75C22.4375 10.7678 23 11.3303 23 12.0178V13.5178C23 14.2053 22.4375 14.7678 21.75 14.7678H9.25001C8.5625 14.7678 8 14.2053 8 13.5178V12.0178C8 11.3303 8.5625 10.7678 9.25001 10.7678Z" fill="#A86A3F"/>
<path d="M11.9875 12.1055L19.8125 10.0305C20.075 9.9555 20.35 10.118 20.425 10.3805L21.725 15.1805C21.8 15.443 21.6375 15.718 21.375 15.793L11.1875 18.5055C10.925 18.5805 10.65 18.418 10.575 18.1555L9.625 14.6305L11.9875 12.1055Z" fill="#3DB39E"/>
<path d="M20.3639 15.0311L18.6764 15.481C18.5389 15.5186 18.4014 15.4435 18.3764 15.306C18.3389 15.1685 18.414 15.031 18.5514 15.006L20.0014 14.6186L19.2265 11.7186L17.7765 12.1061C17.639 12.1436 17.5014 12.0685 17.4765 11.931C17.439 11.7936 17.514 11.656 17.6515 11.6311L19.339 11.1811C19.4765 11.1436 19.614 11.2186 19.639 11.3561L20.539 14.7311C20.5764 14.8686 20.5014 15.006 20.3639 15.0311ZM13.3639 16.9186L11.6764 17.3686C11.5389 17.4061 11.4014 17.331 11.3764 17.1936L10.4764 13.8186C10.4389 13.6811 10.5139 13.5435 10.6514 13.5186L12.3389 13.0686C12.4764 13.0311 12.6139 13.1061 12.6389 13.2436C12.6764 13.3811 12.6014 13.5186 12.4639 13.5436L11.0139 13.9311L11.7889 16.8311L13.2389 16.4436C13.3764 16.4061 13.5139 16.4811 13.5389 16.6186C13.5764 16.7436 13.5014 16.8811 13.3639 16.9186Z" fill="#78CABB"/>
<path d="M8.09945 13.8561C10.3244 12.581 16.3245 9.06852 16.3245 9.06852C16.562 8.93103 16.8745 9.00603 17.012 9.24353L19.512 13.5435C19.6495 13.781 19.562 14.081 19.3245 14.2185L10.1744 19.4685C9.93694 19.606 9.62445 19.531 9.48692 19.2935C9.48692 19.2935 8.78693 17.8685 8.08691 16.6685C8.08695 13.8561 8.09945 14.781 8.09945 13.8561Z" fill="#5ABEAC"/>
<path d="M18.2391 13.4066L16.4891 10.3816C16.4141 10.2566 16.2641 10.2191 16.1516 10.2941L14.6391 11.1691C14.5141 11.2441 14.4766 11.3941 14.5516 11.5066C14.6266 11.6316 14.7766 11.6691 14.8891 11.5941L16.1891 10.8441L17.6891 13.4441L16.3891 14.1941C16.2641 14.2691 16.2266 14.4191 16.3016 14.5316C16.3766 14.6566 16.5266 14.6941 16.6391 14.6191L18.1516 13.7441C18.2641 13.6816 18.3141 13.5317 18.2391 13.4066ZM11.6141 16.9442L10.3141 17.6942L8.81406 15.0941L10.1141 14.3441C10.239 14.2691 10.2766 14.1191 10.2016 14.0066C10.1266 13.8816 9.97657 13.8441 9.86406 13.9191L8.35156 14.7941C8.22658 14.8691 8.18906 15.0191 8.26406 15.1316L10.0141 18.1566C10.089 18.2816 10.239 18.3191 10.3516 18.2441L11.864 17.3691C11.989 17.2941 12.0265 17.1441 11.9515 17.0316C11.8891 16.9191 11.7391 16.8691 11.6141 16.9442ZM12.2516 12.5316C11.2891 13.0816 10.9641 14.3066 11.5141 15.2691C12.0766 16.2316 13.2891 16.5566 14.2516 16.0066C15.2141 15.4566 15.5391 14.2316 14.9891 13.2691C14.4266 12.3191 13.2141 11.9816 12.2516 12.5316ZM18.2391 13.4066L16.4891 10.3816C16.4141 10.2566 16.2641 10.2191 16.1516 10.2941L14.6391 11.1691C14.5141 11.2441 14.4766 11.3941 14.5516 11.5066C14.6266 11.6316 14.7766 11.6691 14.8891 11.5941L16.1891 10.8441L17.6891 13.4441L16.3891 14.1941C16.2641 14.2691 16.2266 14.4191 16.3016 14.5316C16.3766 14.6566 16.5266 14.6941 16.6391 14.6191L18.1516 13.7441C18.2641 13.6816 18.3141 13.5317 18.2391 13.4066ZM11.6141 16.9442L10.3141 17.6942L8.81406 15.0941L10.1141 14.3441C10.239 14.2691 10.2766 14.1191 10.2016 14.0066C10.1266 13.8816 9.97657 13.8441 9.86406 13.9191L8.35156 14.7941C8.22658 14.8691 8.18906 15.0191 8.26406 15.1316L10.0141 18.1566C10.089 18.2816 10.239 18.3191 10.3516 18.2441L11.864 17.3691C11.989 17.2941 12.0265 17.1441 11.9515 17.0316C11.8891 16.9191 11.7391 16.8691 11.6141 16.9442ZM12.2516 12.5316C11.2891 13.0816 10.9641 14.3066 11.5141 15.2691C12.0766 16.2316 13.2891 16.5566 14.2516 16.0066C15.2141 15.4566 15.5391 14.2316 14.9891 13.2691C14.4266 12.3191 13.2141 11.9816 12.2516 12.5316Z" fill="#8CD2C5"/>
<path d="M22.25 23.2678H9.25001C8.5625 23.2678 8 22.7053 8 22.0178V13.0178H22.25C22.9376 13.0178 23.5 13.5803 23.5 14.2678V22.0178C23.5 22.7053 22.9375 23.2678 22.25 23.2678ZM9.00001 13.0178H8V12.0178C8 12.5678 8.44999 13.0178 9.00001 13.0178Z" fill="#C47E4D"/>
<path d="M23.5 20.1428H21.5C20.5375 20.1428 19.75 19.3553 19.75 18.3928C19.75 17.4303 20.5375 16.6428 21.5 16.6428H23.5C23.775 16.6428 24 16.8678 24 17.1428V19.6428C24 19.9178 23.775 20.1428 23.5 20.1428Z" fill="#A86A3F"/>
<path d="M21.5 17.3928C22.05 17.3928 22.5001 17.8428 22.5001 18.3928C22.5001 18.9428 22.0501 19.3928 21.5 19.3928C20.95 19.3928 20.5 18.9428 20.5 18.3928C20.5 17.8428 20.95 17.3928 21.5 17.3928Z" fill="#EFC75E"/>
</svg>
