<svg width="32" height="32" viewBox="0 0 32 32" fill="none" xmlns="http://www.w3.org/2000/svg">
<rect width="32" height="32" rx="16" fill="#F7931A"/>
<path fill-rule="evenodd" clip-rule="evenodd" d="M24.4389 13.6242C24.8153 11.1087 22.9 9.75646 20.2811 8.85435L21.1306 5.44679L19.0564 4.92987L18.2294 8.24763C17.6841 8.11175 17.124 7.98356 16.5675 7.85654L17.4005 4.51692L15.3275 4L14.4774 7.40638C14.026 7.30358 13.583 7.20197 13.1529 7.09504L13.1552 7.08441L10.2947 6.37017L9.74296 8.58555C9.74296 8.58555 11.2819 8.93824 11.2494 8.9601C12.0895 9.16982 12.2413 9.72574 12.2159 10.1664L11.2482 14.0484C11.3061 14.0632 11.3812 14.0844 11.4639 14.1175L11.3936 14.1L11.3936 14.1C11.3455 14.0879 11.2956 14.0754 11.2447 14.0632L9.88829 19.5012C9.7855 19.7564 9.52497 20.1392 8.93774 19.9939C8.95842 20.024 7.4301 19.6176 7.4301 19.6176L6.40039 21.9919L9.09962 22.6648C9.40105 22.7403 9.69886 22.818 9.99357 22.8948L9.99404 22.8949C10.1901 22.9461 10.3848 22.9969 10.5783 23.0464L9.71992 26.4929L11.7918 27.0099L12.6419 23.6C13.2078 23.7536 13.7572 23.8953 14.2948 24.0289L13.4477 27.4228L15.5219 27.9397L16.3803 24.4997C19.9172 25.169 22.5768 24.8991 23.6963 21.7C24.5984 19.1243 23.6514 17.6385 21.7905 16.6696C23.1457 16.3571 24.1666 15.4656 24.4389 13.6242ZM19.7003 20.2698C19.1122 22.6329 15.4132 21.6559 13.7208 21.2089C13.5685 21.1687 13.4325 21.1328 13.3164 21.104L14.4554 16.5379C14.5967 16.5732 14.7694 16.6119 14.965 16.6558L14.965 16.6558C16.7155 17.0486 20.3029 17.8536 19.7003 20.2698ZM15.3158 14.5368C16.7269 14.9134 19.8048 15.7348 20.341 13.587C20.8884 11.3901 17.8969 10.7279 16.436 10.4044C16.2716 10.3681 16.1266 10.336 16.0083 10.3065L14.9756 14.4478C15.0731 14.4721 15.1876 14.5026 15.3158 14.5368Z" fill="white"/>
</svg>
