<svg width="32" height="32" viewBox="0 0 32 32" fill="none" xmlns="http://www.w3.org/2000/svg">
<path d="M15.9999 31.4667C24.5419 31.4667 31.4665 24.542 31.4665 16C31.4665 7.45799 24.5419 0.533325 15.9999 0.533325C7.45786 0.533325 0.533203 7.45799 0.533203 16C0.533203 24.542 7.45786 31.4667 15.9999 31.4667Z" fill="#50AD64"/>
<path d="M22.7627 17.4773L16.2187 20.2773C16.1501 20.309 16.0755 20.3253 16 20.3253C15.9245 20.3253 15.8499 20.309 15.7813 20.2773L9.23733 17.4773C9.18127 17.4526 9.11853 17.4473 9.05913 17.4624C8.99973 17.4775 8.9471 17.5121 8.90964 17.5606C8.87218 17.6091 8.85206 17.6687 8.85249 17.73C8.85292 17.7913 8.87387 17.8507 8.912 17.8987L15.5627 26.4533C15.6146 26.5197 15.681 26.5734 15.7567 26.6104C15.8325 26.6473 15.9157 26.6665 16 26.6665C16.0843 26.6665 16.1675 26.6473 16.2433 26.6104C16.319 26.5734 16.3854 26.5197 16.4373 26.4533L23.088 17.8987C23.1261 17.8507 23.1471 17.7913 23.1475 17.73C23.1479 17.6687 23.1278 17.6091 23.0904 17.5606C23.0529 17.5121 23.0003 17.4775 22.9409 17.4624C22.8815 17.4473 22.8187 17.4526 22.7627 17.4773Z" fill="#86FDAA"/>
<path d="M16 20.3253V26.6666C15.9159 26.6657 15.833 26.646 15.7573 26.6091C15.6817 26.5722 15.6152 26.519 15.5627 26.4533L8.912 17.8987C8.87387 17.8507 8.85292 17.7913 8.85249 17.73C8.85206 17.6687 8.87218 17.6091 8.90964 17.5606C8.9471 17.5121 8.99973 17.4775 9.05913 17.4624C9.11852 17.4473 9.18127 17.4526 9.23733 17.4773L15.7813 20.2773C15.8499 20.309 15.9245 20.3253 16 20.3253Z" fill="#6DE08E"/>
<path d="M23.2315 14.288L16.4315 5.54666C16.3807 5.4803 16.3154 5.42654 16.2404 5.38954C16.1655 5.35253 16.0831 5.33328 15.9995 5.33328C15.916 5.33328 15.8335 5.35253 15.7586 5.38954C15.6837 5.42654 15.6183 5.4803 15.5675 5.54666L8.76753 14.288C8.71705 14.3543 8.68232 14.4313 8.66596 14.5131C8.6496 14.5948 8.65205 14.6792 8.67312 14.7599C8.69418 14.8405 8.73331 14.9154 8.78755 14.9787C8.84179 15.042 8.90972 15.0921 8.98619 15.1253L15.7862 18.0427C15.8538 18.0708 15.9263 18.0853 15.9995 18.0853C16.0728 18.0853 16.1453 18.0708 16.2129 18.0427L23.0129 15.1253C23.0893 15.0921 23.1573 15.042 23.2115 14.9787C23.2657 14.9154 23.3049 14.8405 23.3259 14.7599C23.347 14.6792 23.3495 14.5948 23.3331 14.5131C23.3167 14.4313 23.282 14.3543 23.2315 14.288Z" fill="#86FDAA"/>
<path d="M23.3333 14.7307L16 12.1067V5.33334C16.0834 5.3344 16.1654 5.3541 16.2402 5.39102C16.3149 5.42794 16.3805 5.48112 16.432 5.54668L23.232 14.288C23.28 14.35 23.314 14.4217 23.3315 14.4982C23.349 14.5746 23.3496 14.654 23.3333 14.7307Z" fill="#6DE08E"/>
<path d="M16.0003 12.1067V18.0853C15.9271 18.0851 15.8546 18.0706 15.787 18.0427L8.98699 15.1253C8.90541 15.0908 8.83355 15.0367 8.77776 14.9679C8.72196 14.8991 8.68392 14.8176 8.66699 14.7307L16.0003 12.1067Z" fill="#6DE08E"/>
<path d="M16.0004 5.33334V12.1067L8.66704 14.7307C8.65075 14.654 8.65138 14.5746 8.66888 14.4982C8.68638 14.4217 8.72033 14.35 8.76837 14.288L15.5684 5.54668C15.6199 5.48112 15.6854 5.42794 15.7602 5.39102C15.8349 5.3541 15.917 5.3344 16.0004 5.33334Z" fill="#5FC77D"/>
</svg>
