<svg width="155" height="155" viewBox="0 0 155 155" fill="none" xmlns="http://www.w3.org/2000/svg">
<path d="M47.4145 65.1291L77.5184 35.0375L107.634 65.1536L125.141 47.6349L77.5184 0L29.8958 47.6226L47.4145 65.1291Z" fill="white"/>
<path d="M0 77.5061L17.5065 59.9874L35.0253 77.5061L17.5065 95.0126L0 77.5061Z" fill="white"/>
<path d="M47.4145 89.8709L77.5184 119.975L107.634 89.8586L125.153 107.353L77.5306 154.988L29.8958 107.39L47.4145 89.8709Z" fill="white"/>
<path d="M119.975 77.5061L137.481 59.9874L155 77.4939L137.481 95.0249L119.975 77.5061Z" fill="white"/>
<path d="M95.282 77.4939L77.5184 59.718L64.3824 72.854L62.8643 74.3598L59.7548 77.4694L77.5184 95.2208L95.282 77.5061V77.4939Z" fill="white"/>
</svg>
