<svg width="112" height="155" viewBox="0 0 112 155" fill="none" xmlns="http://www.w3.org/2000/svg">
<path d="M103.512 47.7063C101.884 30.7796 87.2728 25.107 68.8091 23.4891V0H54.5215V22.8622C50.7701 22.8622 46.9277 22.933 43.1157 23.0139V0H28.828L28.8179 23.4689C25.7238 23.5296 22.6802 23.5903 19.7175 23.5903V23.5195L0.0101153 23.5094V38.7778C0.0101153 38.7778 10.5666 38.5756 10.3846 38.7677C16.1785 38.7677 18.0592 42.1247 18.6053 45.0267V71.7819C19.0097 71.7819 19.5254 71.8021 20.1119 71.883H18.6053L18.5951 109.367C18.3424 111.187 17.2705 114.089 13.2259 114.099C13.4079 114.261 2.84135 114.099 2.84135 114.099L0 131.167H18.6053C22.0634 131.167 25.471 131.228 28.8078 131.248L28.8179 155H43.0954V131.501C47.0086 131.582 50.8004 131.612 54.5114 131.612L54.5013 155H68.7889V131.299C92.8139 129.923 109.65 123.867 111.733 101.298C113.421 83.1271 104.877 75.0075 91.2365 71.7314C99.5381 67.525 104.725 60.093 103.512 47.7063ZM83.5113 98.4865C83.5113 116.232 53.1261 114.22 43.4291 114.22V82.7428C53.1261 82.7631 83.5113 79.9824 83.5113 98.4865ZM76.8579 54.0867C76.8579 70.2348 51.4981 68.344 43.4291 68.3541V39.8193C51.5082 39.8193 76.868 37.251 76.8579 54.0867Z" fill="#FEFAF1"/>
</svg>
