<svg width="148" height="137" viewBox="0 0 148 137" fill="none" xmlns="http://www.w3.org/2000/svg">
<path fill-rule="evenodd" clip-rule="evenodd" d="M62.3497 38.2791C64.2756 38.2794 66.1582 38.8508 67.7593 39.921C69.3605 40.9912 70.6084 42.5121 71.3452 44.2915C72.082 46.0709 72.2746 48.0288 71.8987 49.9176C71.5228 51.8064 70.5952 53.5414 69.2333 54.9031C67.8714 56.2648 66.1363 57.1921 64.2474 57.5677C62.3585 57.9433 60.4006 57.7504 58.6214 57.0133C56.8421 56.2762 55.3214 55.0281 54.2515 53.4268C53.1815 51.8254 52.6105 49.9428 52.6105 48.0169C52.6109 45.4342 53.6371 42.9573 55.4636 41.1312C57.29 39.305 59.767 38.2791 62.3497 38.2791ZM85.8599 38.2791C87.7857 38.2796 89.6682 38.8511 91.2692 39.9214C92.8703 40.9917 94.118 42.5126 94.8547 44.292C95.5914 46.0714 95.7839 48.0293 95.4079 49.9181C95.0319 51.8069 94.1043 53.5417 92.7424 54.9033C91.3804 56.265 89.6453 57.1922 87.7564 57.5678C85.8676 57.9433 83.9097 57.7503 82.1305 57.0132C80.3513 56.2761 78.8306 55.028 77.7607 53.4267C76.6908 51.8254 76.1198 49.9428 76.1198 48.0169C76.1202 45.434 77.1466 42.957 78.9732 41.1309C80.7998 39.3047 83.277 38.2789 85.8599 38.2791ZM85.8599 79.2452C87.7857 79.2456 89.6682 79.8171 91.2692 80.8874C92.8703 81.9577 94.118 83.4787 94.8547 85.2581C95.5914 87.0375 95.7839 88.9953 95.4079 90.8841C95.0319 92.7729 94.1043 94.5078 92.7424 95.8694C91.3804 97.231 89.6453 98.1582 87.7564 98.5338C85.8676 98.9093 83.9097 98.7163 82.1305 97.9792C80.3513 97.2421 78.8306 95.994 77.7607 94.3927C76.6908 92.7914 76.1198 90.9088 76.1198 88.9829C76.1199 87.704 76.3719 86.4376 76.8615 85.2561C77.351 84.0745 78.0685 83.0009 78.9729 82.0967C79.8774 81.1925 80.9511 80.4752 82.1328 79.9859C83.3144 79.4967 84.5809 79.245 85.8599 79.2452ZM62.3497 79.2452C64.2756 79.2455 66.1582 79.8169 67.7593 80.887C69.3605 81.9572 70.6084 83.4782 71.3452 85.2576C72.082 87.0369 72.2746 88.9948 71.8987 90.8836C71.5228 92.7725 70.5952 94.5074 69.2333 95.8691C67.8714 97.2308 66.1363 98.1581 64.2474 98.5337C62.3585 98.9093 60.4006 98.7164 58.6214 97.9793C56.8421 97.2423 55.3214 95.9941 54.2515 94.3928C53.1815 92.7914 52.6105 90.9088 52.6105 88.9829C52.6106 87.704 52.8625 86.4377 53.352 85.2562C53.8415 84.0747 54.559 83.0012 55.4634 82.097C56.3677 81.1927 57.4413 80.4755 58.6229 79.9862C59.8045 79.4969 61.0709 79.2451 62.3497 79.2452ZM50.2591 59.0977C52.185 59.098 54.0676 59.6694 55.6687 60.7396C57.2699 61.8098 58.5178 63.3307 59.2546 65.1101C59.9914 66.8895 60.184 68.8474 59.8081 70.7362C59.4322 72.625 58.5046 74.36 57.1427 75.7217C55.7808 77.0834 54.0457 78.0107 52.1568 78.3863C50.2679 78.7619 48.31 78.569 46.5308 77.8319C44.7515 77.0948 43.2308 75.8467 42.1608 74.2453C41.0909 72.644 40.5198 70.7614 40.5198 68.8355C40.5202 66.2527 41.5465 63.7759 43.373 61.9498C45.1994 60.1236 47.6764 59.0977 50.2591 59.0977ZM97.9505 59.0977C99.8763 59.0982 101.759 59.6697 103.36 60.74C104.961 61.8103 106.209 63.3312 106.945 65.1106C107.682 66.89 107.875 68.8479 107.499 70.7367C107.123 72.6255 106.195 74.3603 104.833 75.7219C103.471 77.0836 101.736 78.0108 99.847 78.3863C97.9582 78.7619 96.0004 78.5689 94.2211 77.8318C92.4419 77.0947 90.9212 75.8466 89.8513 74.2453C88.7815 72.644 88.2104 70.7613 88.2104 68.8355C88.2105 67.5565 88.4625 66.2901 88.9521 65.1086C89.4416 63.9271 90.1591 62.8535 91.0636 61.9492C91.968 61.045 93.0417 60.3278 94.2234 59.8385C95.4051 59.3492 96.6715 59.0975 97.9505 59.0977ZM109.034 42.3091C110.229 42.3094 111.397 42.6642 112.391 43.3285C113.385 43.9928 114.159 44.9369 114.617 46.0413C115.074 47.1458 115.193 48.361 114.96 49.5334C114.726 50.7057 114.151 51.7825 113.305 52.6277C112.46 53.4728 111.383 54.0483 110.211 54.2814C109.038 54.5145 107.823 54.3947 106.719 53.9372C105.614 53.4797 104.671 52.705 104.006 51.7111C103.342 50.7171 102.988 49.5486 102.988 48.3532C102.988 47.5594 103.144 46.7733 103.448 46.0399C103.752 45.3065 104.197 44.6401 104.759 44.0788C105.32 43.5176 105.987 43.0724 106.72 42.7687C107.454 42.4651 108.24 42.3089 109.034 42.3091ZM109.034 82.6024C110.229 82.6027 111.397 82.9575 112.391 83.6218C113.385 84.2862 114.159 85.2302 114.617 86.3347C115.074 87.4391 115.193 88.6544 114.96 89.8267C114.726 90.9991 114.151 92.0759 113.305 92.921C112.46 93.7661 111.383 94.3416 110.211 94.5747C109.038 94.8078 107.823 94.688 106.719 94.2305C105.614 93.773 104.671 92.9983 104.006 92.0044C103.342 91.0105 102.988 89.842 102.988 88.6466C102.988 87.8528 103.144 87.0667 103.448 86.3333C103.752 85.5999 104.197 84.9335 104.759 84.3722C105.32 83.8109 105.987 83.3658 106.72 83.0621C107.454 82.7585 108.24 82.6022 109.034 82.6024ZM39.176 82.6024C40.3714 82.6026 41.5399 82.9572 42.5337 83.6215C43.5276 84.2857 44.3022 85.2297 44.7595 86.3342C45.2169 87.4386 45.3365 88.6538 45.1032 89.8262C44.8699 90.9986 44.2941 92.0755 43.4488 92.9207C42.6035 93.7659 41.5265 94.3415 40.3541 94.5747C39.1817 94.8078 37.9664 94.6881 36.8621 94.2306C35.7577 93.7731 34.8138 92.9984 34.1497 92.0045C33.4855 91.0106 33.1311 89.842 33.1311 88.6466C33.1313 87.0435 33.7683 85.5062 34.9019 84.3727C36.0355 83.2392 37.5729 82.6024 39.176 82.6024ZM39.176 42.3091C40.3714 42.3093 41.5399 42.6639 42.5337 43.3281C43.5276 43.9923 44.3022 44.9363 44.7595 46.0408C45.2169 47.1452 45.3365 48.3605 45.1032 49.5329C44.8699 50.7053 44.2941 51.7822 43.4488 52.6274C42.6035 53.4726 41.5265 54.0482 40.3541 54.2813C39.1817 54.5145 37.9664 54.3947 36.8621 53.9372C35.7577 53.4797 34.8138 52.705 34.1497 51.7111C33.4855 50.7172 33.1311 49.5486 33.1311 48.3532C33.1313 46.7501 33.7683 45.2128 34.9019 44.0794C36.0355 42.9459 37.5729 42.3091 39.176 42.3091ZM74.1048 22.1617C75.3002 22.162 76.4686 22.5167 77.4623 23.181C78.4561 23.8454 79.2306 24.7894 79.6878 25.8939C80.145 26.9983 80.2645 28.2136 80.0311 29.3859C79.7977 30.5583 79.2219 31.6351 78.3766 32.4802C77.5312 33.3254 76.4543 33.9008 75.2818 34.1339C74.1094 34.367 72.8943 34.2472 71.7899 33.7897C70.6856 33.3322 69.7417 32.5575 69.0776 31.5636C68.4135 30.5697 68.0591 29.4011 68.0591 28.2058C68.0591 27.4119 68.2155 26.6258 68.5193 25.8924C68.8232 25.159 69.2685 24.4927 69.8299 23.9314C70.3914 23.3701 71.0578 22.9249 71.7913 22.6213C72.5248 22.3176 73.3109 22.1615 74.1048 22.1617ZM74.1048 102.75C75.3002 102.75 76.4686 103.105 77.4623 103.769C78.4561 104.434 79.2306 105.378 79.6878 106.482C80.145 107.587 80.2645 108.802 80.0311 109.974C79.7977 111.147 79.2219 112.223 78.3766 113.068C77.5312 113.914 76.4543 114.489 75.2818 114.722C74.1094 114.955 72.8943 114.835 71.7899 114.378C70.6856 113.92 69.7417 113.146 69.0776 112.152C68.4135 111.158 68.0591 109.989 68.0591 108.794C68.0591 108 68.2155 107.214 68.5193 106.481C68.8232 105.747 69.2685 105.081 69.8299 104.52C70.3914 103.958 71.0578 103.513 71.7913 103.21C72.5248 102.906 73.3109 102.75 74.1048 102.75ZM99.9654 108.794C100.962 108.794 101.935 109.09 102.763 109.644C103.591 110.197 104.237 110.984 104.618 111.904C104.999 112.825 105.098 113.837 104.904 114.814C104.709 115.791 104.229 116.688 103.525 117.393C102.82 118.097 101.923 118.577 100.946 118.771C99.969 118.965 98.9563 118.865 98.0361 118.484C97.1159 118.103 96.3293 117.457 95.776 116.629C95.2226 115.801 94.9272 114.827 94.9272 113.831C94.9272 113.169 95.0576 112.514 95.3108 111.903C95.564 111.292 95.9351 110.736 96.403 110.269C96.8708 109.801 97.4263 109.43 98.0375 109.177C98.6488 108.924 99.3039 108.794 99.9654 108.794ZM48.2442 108.794C49.2402 108.794 50.2139 109.09 51.042 109.644C51.87 110.197 52.5154 110.984 52.8963 111.904C53.2773 112.825 53.3768 113.837 53.1823 114.814C52.9878 115.791 52.508 116.688 51.8035 117.393C51.0991 118.097 50.2016 118.577 49.2247 118.771C48.2477 118.965 47.2351 118.865 46.3148 118.484C45.3946 118.103 44.608 117.457 44.0547 116.629C43.5013 115.801 43.206 114.827 43.206 113.831C43.206 113.169 43.3363 112.514 43.5895 111.903C43.8427 111.292 44.2138 110.736 44.6817 110.269C45.1496 109.801 45.705 109.43 46.3162 109.177C46.9275 108.924 47.5826 108.794 48.2442 108.794ZM48.2442 18.1325C49.2402 18.1328 50.2139 18.4284 51.042 18.9821C51.87 19.5357 52.5154 20.3224 52.8963 21.2427C53.2773 22.1631 53.3768 23.1758 53.1823 24.1527C52.9878 25.1296 52.508 26.0269 51.8035 26.7311C51.0991 27.4354 50.2016 27.9149 49.2247 28.1092C48.2477 28.3034 47.2351 28.2035 46.3148 27.8223C45.3946 27.441 44.608 26.7955 44.0547 25.9672C43.5013 25.139 43.206 24.1653 43.206 23.1692C43.206 22.5076 43.3363 21.8525 43.5895 21.2413C43.8427 20.6302 44.2138 20.0748 44.6817 19.6071C45.1496 19.1394 45.705 18.7685 46.3162 18.5154C46.9275 18.2624 47.5826 18.1323 48.2442 18.1325ZM99.9654 18.1325C100.962 18.1328 101.935 18.4284 102.763 18.9821C103.591 19.5357 104.237 20.3224 104.618 21.2427C104.999 22.1631 105.098 23.1758 104.904 24.1527C104.709 25.1296 104.229 26.0269 103.525 26.7311C102.82 27.4354 101.923 27.9149 100.946 28.1092C99.969 28.3034 98.9563 28.2035 98.0361 27.8223C97.1159 27.441 96.3293 26.7955 95.776 25.9672C95.2226 25.139 94.9272 24.1653 94.9272 23.1692C94.9272 22.5076 95.0576 21.8525 95.3108 21.2413C95.564 20.6302 95.9351 20.0748 96.403 19.6071C96.8708 19.1394 97.4263 18.7685 98.0375 18.5154C98.6488 18.2624 99.3039 18.1323 99.9654 18.1325ZM126.162 63.1277C127.158 63.1278 128.132 63.4234 128.96 63.9769C129.788 64.5304 130.433 65.3171 130.814 66.2374C131.195 67.1578 131.295 68.1705 131.101 69.1474C130.906 70.1244 130.427 71.0218 129.722 71.7261C129.018 72.4304 128.12 72.91 127.143 73.1043C126.166 73.2986 125.154 73.1988 124.233 72.8176C123.313 72.4363 122.526 71.7907 121.973 70.9625C121.42 70.1342 121.124 69.1605 121.124 68.1644C121.124 66.8285 121.655 65.5474 122.6 64.6029C123.545 63.6583 124.826 63.1277 126.162 63.1277ZM22.0472 63.1277C23.0433 63.1278 24.017 63.4234 24.8452 63.9769C25.6734 64.5304 26.3188 65.3171 26.6999 66.2374C27.081 67.1578 27.1806 68.1705 26.9862 69.1474C26.7918 70.1244 26.312 71.0218 25.6076 71.7261C24.9032 72.4304 24.0057 72.91 23.0287 73.1043C22.0517 73.2986 21.0391 73.1988 20.1188 72.8176C19.1985 72.4363 18.4119 71.7907 17.8585 70.9625C17.3051 70.1342 17.0097 69.1605 17.0097 68.1644C17.0097 67.5029 17.14 66.8479 17.3932 66.2367C17.6464 65.6256 18.0174 65.0703 18.4852 64.6026C18.953 64.1349 19.5083 63.7639 20.1195 63.5108C20.7307 63.2578 21.3857 63.1276 22.0472 63.1277ZM18.3528 32.235C19.1499 32.235 19.9291 32.4713 20.5918 32.9142C21.2545 33.357 21.7711 33.9865 22.0761 34.7229C22.3811 35.4593 22.4608 36.2696 22.3053 37.0514C22.1497 37.8332 21.7658 38.5512 21.2021 39.1148C20.6385 39.6784 19.9203 40.0622 19.1385 40.2176C18.3567 40.373 17.5464 40.293 16.8101 39.9879C16.0737 39.6828 15.4444 39.1661 15.0016 38.5033C14.5589 37.8405 14.3227 37.0613 14.3228 36.2642C14.3231 35.1955 14.7477 34.1706 15.5035 33.4151C16.2592 32.6595 17.2841 32.235 18.3528 32.235ZM18.3528 96.7057C19.1499 96.7057 19.9291 96.9421 20.5918 97.3849C21.2545 97.8278 21.7711 98.4573 22.0761 99.1937C22.3811 99.9301 22.4608 100.74 22.3053 101.522C22.1497 102.304 21.7658 103.022 21.2021 103.586C20.6385 104.149 19.9203 104.533 19.1385 104.688C18.3567 104.844 17.5464 104.764 16.8101 104.459C16.0737 104.154 15.4444 103.637 15.0016 102.974C14.5589 102.311 14.3227 101.532 14.3228 100.735C14.3231 99.6663 14.7477 98.6414 15.5035 97.8858C16.2592 97.1302 17.2841 96.7057 18.3528 96.7057ZM129.856 96.7057C130.653 96.7057 131.432 96.9421 132.095 97.3849C132.758 97.8278 133.274 98.4573 133.579 99.1937C133.884 99.9301 133.964 100.74 133.809 101.522C133.653 102.304 133.269 103.022 132.705 103.586C132.142 104.149 131.424 104.533 130.642 104.688C129.86 104.844 129.05 104.764 128.313 104.459C127.577 104.154 126.948 103.637 126.505 102.974C126.062 102.311 125.826 101.532 125.826 100.735C125.826 99.6663 126.251 98.6414 127.007 97.8858C127.762 97.1302 128.787 96.7057 129.856 96.7057ZM129.856 32.235C130.653 32.235 131.432 32.4713 132.095 32.9142C132.758 33.357 133.274 33.9865 133.579 34.7229C133.884 35.4593 133.964 36.2696 133.809 37.0514C133.653 37.8332 133.269 38.5512 132.705 39.1148C132.142 39.6784 131.424 40.0622 130.642 40.2176C129.86 40.373 129.05 40.293 128.313 39.9879C127.577 39.6828 126.948 39.1661 126.505 38.5033C126.062 37.8405 125.826 37.0613 125.826 36.2642C125.826 35.1955 126.251 34.1706 127.007 33.4151C127.762 32.6595 128.787 32.235 129.856 32.235ZM74.1048 2.94133e-07C74.9019 0.000152533 75.6809 0.236665 76.3436 0.679609C77.0062 1.12255 77.5226 1.75205 77.8275 2.48848C78.1324 3.22492 78.212 4.03521 78.0564 4.81692C77.9007 5.59862 77.5168 6.31663 76.9531 6.88012C76.3894 7.44361 75.6712 7.82727 74.8895 7.98261C74.1077 8.13796 73.2975 8.05801 72.5611 7.75285C71.8248 7.44769 71.1955 6.93101 70.7528 6.26821C70.3101 5.6054 70.0739 4.82622 70.0741 4.02917C70.0741 3.49992 70.1784 2.97588 70.3809 2.48693C70.5835 1.99799 70.8804 1.55374 71.2547 1.17958C71.6291 0.805415 72.0734 0.508635 72.5624 0.30624C73.0514 0.103845 73.5756 -0.000201902 74.1048 2.94133e-07ZM74.1048 128.941C74.9018 128.941 75.6809 129.177 76.3435 129.62C77.0061 130.063 77.5226 130.693 77.8275 131.429C78.1323 132.165 78.212 132.976 78.0565 133.757C77.9009 134.539 77.517 135.257 76.9534 135.821C76.3897 136.384 75.6717 136.768 74.8899 136.923C74.1082 137.079 73.298 136.999 72.5617 136.694C71.8253 136.389 71.196 135.872 70.7532 135.21C70.3104 134.547 70.0741 133.768 70.0741 132.971C70.0741 132.441 70.1783 131.917 70.3809 131.428C70.5835 130.939 70.8804 130.495 71.2547 130.121C71.629 129.747 72.0734 129.45 72.5624 129.247C73.0514 129.045 73.5755 128.941 74.1048 128.941ZM109.705 126.255C110.369 126.255 111.018 126.452 111.57 126.821C112.123 127.19 112.553 127.714 112.807 128.328C113.061 128.941 113.128 129.616 112.998 130.268C112.869 130.919 112.549 131.518 112.079 131.987C111.61 132.457 111.011 132.777 110.36 132.906C109.708 133.036 109.033 132.969 108.42 132.715C107.806 132.461 107.282 132.03 106.913 131.478C106.544 130.926 106.347 130.277 106.347 129.613C106.347 129.172 106.434 128.735 106.602 128.328C106.771 127.92 107.018 127.55 107.33 127.238C107.642 126.926 108.012 126.679 108.42 126.51C108.827 126.341 109.264 126.255 109.705 126.255ZM38.5041 126.255C39.1682 126.255 39.8175 126.452 40.3697 126.821C40.9219 127.19 41.3523 127.714 41.6065 128.328C41.8607 128.941 41.9272 129.616 41.7976 130.268C41.668 130.919 41.3482 131.518 40.8786 131.987C40.409 132.457 39.8106 132.777 39.1592 132.906C38.5078 133.036 37.8326 132.969 37.219 132.715C36.6054 132.461 36.081 132.03 35.712 131.478C35.343 130.926 35.1461 130.277 35.1461 129.613C35.1461 129.172 35.2329 128.735 35.4017 128.328C35.5704 127.92 35.8178 127.55 36.1296 127.238C36.4414 126.926 36.8116 126.679 37.219 126.51C37.6264 126.341 38.0631 126.255 38.5041 126.255ZM38.5041 4.03227C39.1682 4.03227 39.8175 4.22921 40.3697 4.5982C40.9219 4.96718 41.3523 5.49165 41.6065 6.10525C41.8607 6.71885 41.9272 7.39403 41.7976 8.04542C41.668 8.69682 41.3482 9.29518 40.8786 9.76481C40.409 10.2344 39.8106 10.5542 39.1592 10.6838C38.5078 10.8134 37.8326 10.7469 37.219 10.4927C36.6054 10.2385 36.081 9.80814 35.712 9.25591C35.343 8.70368 35.1461 8.05444 35.1461 7.39029C35.1457 6.94904 35.2322 6.51208 35.4008 6.10431C35.5694 5.69654 35.8166 5.32594 36.1285 5.0138C36.4404 4.70165 36.8107 4.45405 37.2183 4.2851C37.6259 4.11615 38.0628 4.02917 38.5041 4.02917V4.03227ZM109.705 4.03227C110.369 4.03227 111.018 4.22921 111.57 4.5982C112.123 4.96718 112.553 5.49165 112.807 6.10525C113.061 6.71885 113.128 7.39403 112.998 8.04542C112.869 8.69682 112.549 9.29518 112.079 9.76481C111.61 10.2344 111.011 10.5542 110.36 10.6838C109.708 10.8134 109.033 10.7469 108.42 10.4927C107.806 10.2385 107.282 9.80814 106.913 9.25591C106.544 8.70368 106.347 8.05444 106.347 7.39029C106.346 6.94904 106.433 6.51208 106.601 6.10431C106.77 5.69654 107.017 5.32594 107.329 5.0138C107.641 4.70165 108.011 4.45405 108.419 4.2851C108.827 4.11615 109.264 4.02917 109.705 4.02917V4.03227ZM144.634 65.1434C145.298 65.1434 145.947 65.3404 146.499 65.7095C147.052 66.0785 147.482 66.6031 147.736 67.2168C147.99 67.8305 148.057 68.5057 147.927 69.1572C147.797 69.8086 147.477 70.4069 147.007 70.8765C146.538 71.3461 145.939 71.6658 145.288 71.7952C144.636 71.9246 143.961 71.8578 143.347 71.6034C142.734 71.349 142.209 70.9184 141.841 70.366C141.472 69.8135 141.275 69.1641 141.276 68.4999C141.276 68.0589 141.362 67.6223 141.531 67.2148C141.7 66.8074 141.947 66.4373 142.259 66.1255C142.571 65.8136 142.941 65.5663 143.348 65.3975C143.756 65.2288 144.193 65.1419 144.634 65.1419V65.1434ZM3.5753 65.1434C4.23952 65.1434 4.88881 65.3404 5.44107 65.7095C5.99333 66.0785 6.42374 66.6031 6.67785 67.2168C6.93197 67.8305 6.99838 68.5057 6.86868 69.1572C6.73899 69.8086 6.41902 70.4069 5.94924 70.8765C5.47945 71.3461 4.88096 71.6658 4.22947 71.7952C3.57797 71.9246 2.90274 71.8578 2.28916 71.6034C1.67559 71.349 1.15124 70.9184 0.78244 70.366C0.41364 69.8135 0.216951 69.1641 0.217255 68.4999C0.217255 68.0589 0.304108 67.6223 0.472866 67.2148C0.641623 66.8074 0.888978 66.4373 1.2008 66.1255C1.51262 65.8136 1.88282 65.5663 2.29023 65.3975C2.69765 65.2288 3.13431 65.1419 3.5753 65.1419V65.1434Z" fill="white"/>
</svg>
