<svg width="169" height="155" viewBox="0 0 169 155" fill="none" xmlns="http://www.w3.org/2000/svg">
<path d="M101.243 52.0646V31.4236H148.418V0H19.9867V31.4236H67.1614V52.0646C28.844 53.836 0 61.4224 0 70.5106C0 79.5988 28.844 87.1851 67.1614 88.9565V155H101.281V88.9565C139.56 87.1851 168.327 79.5988 168.327 70.5106C168.289 61.4224 139.522 53.836 101.243 52.0646ZM101.281 83.3727C100.319 83.4112 95.3893 83.7193 84.3754 83.7193C75.5566 83.7193 69.395 83.4882 67.2 83.3727V83.4112C33.3497 81.9093 8.04859 76.0174 8.04859 68.9702C8.04859 61.923 33.3112 56.0311 67.2 54.5292V77.4808C69.4335 77.6348 75.7492 78.0199 84.5295 78.0199C95.0427 78.0199 100.319 77.5963 101.32 77.4808V54.4522C135.132 55.954 160.356 61.846 160.356 68.8932C160.279 75.9404 135.055 81.8323 101.281 83.3727Z" fill="white"/>
</svg>
