<svg width="162" height="155" viewBox="0 0 162 155" fill="none" xmlns="http://www.w3.org/2000/svg">
<g opacity="0.6">
<path d="M110.433 93.1752C110.433 77.4989 101.025 72.123 82.2091 69.8758C68.7693 68.0803 66.0813 64.4999 66.0813 58.2315C66.0813 51.9632 70.5648 47.9312 79.5212 47.9312C87.5851 47.9312 92.0686 50.6192 94.305 57.3391C94.7566 58.6831 96.1006 59.5755 97.4446 59.5755H104.616C106.412 59.5755 107.756 58.2315 107.756 56.436V55.9844C105.96 46.1249 97.8961 38.5126 87.5958 37.6202V26.8683C87.5958 25.0727 86.2518 23.7288 84.0155 23.2879H77.2955C75.5 23.2879 74.156 24.6319 73.7151 26.8683V37.1686C60.2753 38.9642 51.7598 47.9205 51.7598 59.124C51.7598 73.9078 60.7161 79.7353 79.5319 81.9717C92.0794 84.2081 96.1113 86.8961 96.1113 94.0676C96.1113 101.239 89.843 106.163 81.3275 106.163C69.6832 106.163 65.6512 101.239 64.3072 94.5192C63.8557 92.7236 62.5117 91.8312 61.1677 91.8312H53.5554C51.7598 91.8312 50.4158 93.1752 50.4158 94.9707V95.4223C52.2114 106.626 59.3721 114.69 74.156 116.926V127.678C74.156 129.474 75.5 130.818 77.7363 131.258H84.4563C86.2518 131.258 87.5958 129.914 88.0367 127.678V116.926C101.466 114.679 110.433 105.271 110.433 93.1752Z" fill="white"/>
<path d="M58.0124 140.216C23.0692 127.669 5.14598 88.6928 18.1449 54.2005C24.8647 35.3846 39.6484 21.0523 58.0124 14.3323C59.808 13.4399 60.7004 12.0959 60.7004 9.84878V3.5804C60.7004 1.78482 59.808 0.44083 58.0124 0C57.5609 0 56.6685 1.333e-06 56.2169 0.451583C13.6614 13.8915 -9.63771 59.1357 3.80201 101.703C11.8658 126.787 31.133 146.054 56.2169 154.118C58.0124 155.011 59.7972 154.118 60.2488 152.323C60.7004 151.871 60.7004 151.43 60.7004 150.527V144.259C60.7004 142.904 59.3564 141.119 58.0124 140.216ZM105.492 0.44083C103.697 -0.451581 101.912 0.440832 101.46 2.23641C101.009 2.68799 101.009 3.12882 101.009 4.03198V10.3004C101.009 12.0959 102.353 13.8808 103.697 14.7839C138.64 27.3314 156.563 66.3072 143.564 100.799C136.844 119.615 122.061 133.948 103.697 140.668C101.901 141.56 101.009 142.904 101.009 145.151V151.42C101.009 153.215 101.901 154.559 103.697 155C104.148 155 105.041 155 105.492 154.548C148.048 141.108 171.347 95.8643 157.907 53.2974C149.843 27.7723 130.135 8.50479 105.492 0.44083Z" fill="white"/>
</g>
</svg>
